<svg id="ct_symbol" xmlns="http://www.w3.org/2000/svg" width="80" height="80" viewBox="0 0 80 80">
  <title>c't Symbol</title>
  <rect width="80" height="80" fill="#1f7db5"/>
  <path id="white" d="M50.5,12.35h13.85l-3.15,12.85h12.85l-3.05,12.5h-12.9l-1.45,5.9s-.45,1.5-.3,2.45c.1,.65,.3,1.25,.7,1.75,.5,.7,.95,1.05,1.75,1.4,.75,.35,2.1,.35,2.1,.35h10.05l-3.4,13.9h-10.45c-9.2,.1-14.95-6.2-14.95-14,0-1.7,.5-4.4,1.5-9.1l.65-2.65,6.2-25.2v-.15Zm-13.45,0l-2.75,11.1h5.85l-3.5,14.2h5.95l6.25-25.3h-11.8Zm-7.95,12.85c-13.5,0-23.95,13.1-23.95,24.1,0,7.8,5.7,14.25,14.9,14.05h14.3l3.4-13.9h-14.65c-3,0-3.95-3.05-3.95-4.9,0-3.25,3.65-6.85,7.15-6.9h8.75l3.05-12.5h-9v.05Z" fill="#fff"/>
</svg>